<?xml version="1.0" encoding="UTF-8" standalone="no"?><!DOCTYPE svg PUBLIC "-//W3C//DTD SVG 1.1//EN" "http://www.w3.org/Graphics/SVG/1.1/DTD/svg11.dtd"><svg width="100%" height="100%" viewBox="0 0 1189 498" version="1.1" xmlns="http://www.w3.org/2000/svg" xmlns:xlink="http://www.w3.org/1999/xlink" xml:space="preserve" xmlns:serif="http://www.serif.com/" style="fill-rule:evenodd;clip-rule:evenodd;stroke-linejoin:round;stroke-miterlimit:2;"><g id="GWN"><path d="M120.459,325.74c-11.23,-5.522 -25.799,-8.165 -37.452,-8.165c-33.914,0 -52.634,24.254 -52.634,55.79c-0,31.291 18.309,54.878 49.308,54.878c7.905,0 14.142,-0.886 19.143,-2.216l-0,-40.123l-30.788,0l0,-24.237l58.664,-0l0,82.889c-15.393,4.416 -31.413,7.925 -47.019,7.925c-47.019,-0 -79.681,-24.901 -79.681,-76.921c-0,-52.683 30.373,-82.222 79.681,-82.222c16.846,-0 30.162,2.419 42.652,6.395l-1.874,26.007Z" style="fill:#0060a2;fill-rule:nonzero;"/><path d="M142.506,295.981l30.584,-0l27.047,123.008l0.415,0l24.762,-123.008l39.526,-0l25.583,123.008l0.415,0l27.262,-123.008l28.295,-0l-37.862,153.877l-37.452,0l-26.222,-123.032l-0.414,-0l-25.795,123.032l-37.655,0l-38.489,-153.877Z" style="fill:#0060a2;fill-rule:nonzero;"/><path d="M363.866,295.981l35.777,-0l55.346,115.084l0.415,-0l0,-115.084l27.872,-0l0,153.877l-35.565,0l-55.549,-115.083l-0.411,-0l-0,115.083l-27.885,0l0,-153.877Z" style="fill:#0060a2;fill-rule:nonzero;"/><path d="M637.104,307.633c-4.196,-2.053 -9.657,-3.062 -14.036,-3.062c-12.702,0 -19.716,9.092 -19.716,20.928c0,11.734 6.855,20.586 18.488,20.586c2.964,-0 5.302,-0.346 7.156,-0.829l0,-15.061l-11.531,0l0,-9.091l21.997,-0l0,31.088c-5.765,1.655 -11.775,2.964 -17.622,2.964c-17.642,0 -29.889,-9.335 -29.889,-28.832c0,-19.76 11.401,-30.828 29.889,-30.828c6.311,-0 11.291,0.886 15.988,2.379l-0.724,9.758Z" style="fill:#0060a2;fill-rule:nonzero;"/><path d="M675.209,328.704c-0.321,-5.363 -2.68,-9.999 -8.527,-9.999c-5.847,0 -8.811,4.314 -9.254,9.999l17.781,-0Zm6.997,23.086c-3.809,2.216 -8.164,3.367 -13.812,3.367c-13.263,0 -20.968,-8.108 -20.968,-22.058c-0,-12.32 6.152,-22.481 18.651,-22.481c14.881,0 19.093,10.828 19.093,25.709l-27.742,0c0.443,6.856 4.961,10.722 11.45,10.722c5.083,0 9.437,-1.976 13.328,-4.273l0,9.014Z" style="fill:#0060a2;fill-rule:nonzero;"/><path d="M693.196,311.606l9.754,-0l0,5.948l0.163,0c3.31,-5.2 8.067,-6.936 11.938,-6.936c5.647,-0 9.616,2.22 11.876,7.522c2.399,-5.144 7.64,-7.522 12.56,-7.522c9.897,-0 12.702,7.176 12.702,16.695l0,26.856l-10.445,-0l-0,-25.364c-0,-3.973 -0,-9.596 -6.006,-9.596c-6.936,0 -7.806,8.746 -7.806,14.312l-0,20.648l-10.462,-0l-0,-25.364c-0,-3.973 -0,-9.596 -6.01,-9.596c-6.936,0 -7.782,8.746 -7.782,14.312l0,20.648l-10.482,-0l-0,-42.563Z" style="fill:#0060a2;fill-rule:nonzero;"/><path d="M787.917,328.704c-0.301,-5.363 -2.663,-9.999 -8.51,-9.999c-5.827,0 -8.791,4.314 -9.254,9.999l17.764,-0Zm7.034,23.086c-3.85,2.216 -8.205,3.367 -13.808,3.367c-13.267,0 -20.989,-8.108 -20.989,-22.058c0,-12.32 6.168,-22.481 18.651,-22.481c14.877,0 19.11,10.828 19.11,25.709l-27.762,0c0.463,6.856 4.98,10.722 11.474,10.722c5.078,0 9.417,-1.976 13.324,-4.273l0,9.014Z" style="fill:#0060a2;fill-rule:nonzero;"/><path d="M806.344,311.607l10.462,-0l0,42.562l-10.462,0l0,-42.562Zm0,-18.346l10.462,-0l0,10.563l-10.462,0l0,-10.563Z" style="fill:#0060a2;fill-rule:nonzero;"/><path d="M827.799,311.606l9.9,-0l0,5.786l0.138,-0c3.306,-4.879 7.742,-6.774 13.186,-6.774c9.56,-0 13.67,7.095 13.67,16.695l0,26.856l-10.441,-0l-0,-22.725c-0,-5.201 -0.086,-12.235 -6.819,-12.235c-7.538,0 -9.193,8.669 -9.193,14.134l0,20.826l-10.441,-0l-0,-42.563Z" style="fill:#0060a2;fill-rule:nonzero;"/><path d="M892.598,346.568c6.977,-0 9.234,-7.762 9.234,-13.813c0,-5.948 -2.659,-13.547 -9.356,-13.547c-6.794,-0 -8.668,7.863 -8.668,13.547c-0,5.868 1.935,13.813 8.79,13.813m9.641,2.801l-0.163,0c-3.147,4.151 -7.42,5.786 -12.34,5.786c-12.34,0 -16.858,-10.746 -16.858,-22.4c0,-11.734 4.518,-22.135 16.858,-22.135c5.241,0 8.892,1.895 12.015,5.965l0.162,0l0,-24.396l10.446,0l-0,61.978l-10.12,-0l-0,-4.798Z" style="fill:#0060a2;fill-rule:nonzero;"/><path d="M948.325,328.704c-0.321,-5.363 -2.659,-9.999 -8.486,-9.999c-5.867,0 -8.811,4.314 -9.294,9.999l17.78,-0Zm7.018,23.086c-3.83,2.216 -8.185,3.367 -13.792,3.367c-13.287,0 -21.009,-8.108 -21.009,-22.058c0,-12.32 6.172,-22.481 18.671,-22.481c14.878,0 19.114,10.828 19.114,25.709l-27.782,0c0.483,6.856 4.997,10.722 11.47,10.722c5.082,0 9.437,-1.976 13.328,-4.273l0,9.014Z" style="fill:#0060a2;fill-rule:nonzero;"/><path d="M961.976,311.606l11.092,-0l8.889,31.495l0.162,-0l8.104,-31.495l12.161,-0l8.746,31.495l0.142,-0l8.348,-31.495l10.002,-0l-12.324,42.563l-12.336,-0l-8.73,-32.484l-0.162,0l-8.592,32.484l-11.934,-0l-13.568,-42.563Z" style="fill:#0060a2;fill-rule:nonzero;"/><path d="M1061.07,328.704c-0.321,-5.363 -2.659,-9.999 -8.51,-9.999c-5.843,0 -8.831,4.314 -9.275,9.999l17.785,-0Zm7.018,23.086c-3.834,2.216 -8.189,3.367 -13.833,3.367c-13.263,0 -20.968,-8.108 -20.968,-22.058c0,-12.32 6.172,-22.481 18.63,-22.481c14.898,0 19.115,10.828 19.115,25.709l-27.747,0c0.444,6.856 4.985,10.722 11.454,10.722c5.079,0 9.437,-1.976 13.349,-4.273l-0,9.014Z" style="fill:#0060a2;fill-rule:nonzero;"/><path d="M1079.46,311.606l9.275,-0l-0,9.657l0.158,-0c0.484,-3.953 4.761,-10.645 11.011,-10.645c1.008,-0 2.118,-0 3.204,0.321l-0,11.153c-0.947,-0.565 -2.802,-0.911 -4.676,-0.911c-8.51,0 -8.51,11.255 -8.51,17.382l-0,15.606l-10.462,-0l0,-42.563Z" style="fill:#0060a2;fill-rule:nonzero;"/><path d="M1109.83,292.191l10.442,0l-0,36.431l0.162,0l12.483,-17.016l12.316,0l-14.959,19.013l16.837,23.55l-13.247,-0l-13.43,-20.647l-0.162,-0l-0,20.647l-10.442,-0l0,-61.978Z" style="fill:#0060a2;fill-rule:nonzero;"/><path d="M1178.18,328.704c-0.325,-5.363 -2.663,-9.999 -8.51,-9.999c-5.847,0 -8.832,4.314 -9.295,9.999l17.805,-0Zm7.014,23.086c-3.83,2.216 -8.185,3.367 -13.833,3.367c-13.263,0 -20.968,-8.108 -20.968,-22.058c-0,-12.32 6.172,-22.481 18.63,-22.481c14.922,0 19.114,10.828 19.114,25.709l-27.762,0c0.463,6.856 5.017,10.722 11.47,10.722c5.083,0 9.441,-1.976 13.349,-4.273l-0,9.014Z" style="fill:#0060a2;fill-rule:nonzero;"/><path d="M594.058,395.661l13.426,0l20.748,43.149l0.163,-0l-0,-43.149l10.441,0l0,57.705l-13.348,-0l-20.826,-43.144l-0.138,-0l-0,43.144l-10.466,-0l-0,-57.705Z" style="fill:#0060a2;fill-rule:nonzero;"/><path d="M681.059,403.022l-9.071,0l-0,-9.575l9.071,-0l-0,9.575Zm-25.124,-9.579l9.035,-0l-0,9.575l-9.035,0l0,-9.575Zm30.971,59.924l-9.921,0l-0,-5.806l-0.163,0c-3.188,4.152 -7.721,6.794 -13.186,6.794c-9.514,0 -13.649,-7.099 -13.649,-16.695l-0,-26.855l10.465,-0l0,22.72c0,5.205 0.082,12.239 6.774,12.239c7.583,0 9.194,-8.689 9.194,-14.133l-0,-20.826l10.486,-0l-0,42.562Z" style="fill:#0060a2;fill-rule:nonzero;"/><path d="M697.508,410.804l9.759,-0l-0,5.948l0.162,0c3.265,-5.2 8.027,-6.957 11.934,-6.957c5.607,0 9.579,2.241 11.856,7.539c2.399,-5.119 7.624,-7.539 12.544,-7.539c9.917,0 12.702,7.197 12.702,16.716l0,26.856l-10.445,-0l-0,-25.364c-0,-3.973 -0,-9.596 -5.99,-9.596c-6.952,0 -7.802,8.746 -7.802,14.292l-0,20.668l-10.462,-0l0,-25.364c0,-3.973 0,-9.596 -6.01,-9.596c-6.956,0 -7.802,8.746 -7.802,14.292l-0,20.668l-10.446,-0l0,-42.563Z" style="fill:#0060a2;fill-rule:nonzero;"/><path d="M786.745,445.766c6.876,-0 8.811,-7.945 8.811,-13.813c0,-5.704 -1.874,-13.547 -8.628,-13.547c-6.733,-0 -9.376,7.599 -9.376,13.547c0,6.03 2.257,13.813 9.193,13.813m-19.72,-54.399l10.446,-0l-0,24.88l0.163,-0c2.882,-4.03 6.554,-6.453 11.994,-6.453c12.361,-0 16.878,10.425 16.878,22.159c0,11.654 -4.517,22.4 -16.878,22.4c-4.432,0 -9.25,-1.651 -12.316,-6.188l-0.162,-0l-0,5.2l-10.125,-0l0,-61.998Z" style="fill:#0060a2;fill-rule:nonzero;"/><path d="M814.914,410.804l9.295,-0l-0,9.657l0.138,-0c0.468,-3.953 4.782,-10.666 10.99,-10.666c1.049,0 2.139,0 3.225,0.342l-0,11.153c-0.927,-0.569 -2.802,-0.911 -4.676,-0.911c-8.51,0 -8.51,11.255 -8.51,17.362l-0,15.626l-10.462,-0l-0,-42.563Z" style="fill:#0060a2;fill-rule:nonzero;"/><path d="M868.808,427.901c-0.281,-5.363 -2.623,-9.998 -8.47,-9.998c-5.867,0 -8.831,4.294 -9.315,9.998l17.785,0Zm7.034,23.067c-3.81,2.236 -8.185,3.387 -13.808,3.387c-13.268,-0 -20.969,-8.104 -20.969,-22.079c0,-12.299 6.148,-22.481 18.627,-22.481c14.922,0 19.134,10.848 19.134,25.706l-27.803,-0c0.484,6.879 5.001,10.75 11.495,10.75c5.058,0 9.433,-1.98 13.324,-4.298l-0,9.015Z" style="fill:#0060a2;fill-rule:nonzero;"/><path d="M913.063,419.978c-1.874,-0.927 -3.911,-1.574 -7.115,-1.574c-6.453,0 -10.588,5.445 -10.588,13.467c-0,7.843 3.509,13.893 10.848,13.893c2.944,0 6.229,-1.146 8.026,-1.996l0.464,9.197c-3.025,0.984 -6.172,1.391 -10.446,1.391c-13.186,-0 -19.838,-9.498 -19.838,-22.485c0,-12.316 6.876,-22.074 19.436,-22.074c4.232,-0 7.257,0.504 10.161,1.411l-0.948,8.77Z" style="fill:#0060a2;fill-rule:nonzero;"/><path d="M921.632,391.367l10.466,0l-0,25.226l0.158,-0c2.643,-4.136 7.177,-6.799 12.641,-6.799c9.499,0 13.654,7.12 13.654,16.715l0,26.856l-10.466,0l0,-22.72c0,-5.225 -0.081,-12.239 -6.778,-12.239c-7.579,-0 -9.209,8.669 -9.209,14.133l-0,20.826l-10.466,0l-0,-61.998Z" style="fill:#0060a2;fill-rule:nonzero;"/><path d="M972.743,418.888l-7.721,-0l-0,-8.083l7.721,-0l0,-8.531l10.446,-3.545l-0,12.076l9.29,-0l0,8.083l-9.29,-0l-0,19.842c-0,3.647 0.947,7.034 4.919,7.034c1.875,0 3.688,-0.423 4.778,-1.147l0.28,8.746c-2.175,0.671 -4.594,0.992 -7.7,0.992c-8.185,0 -12.723,-5.367 -12.723,-13.812l0,-21.655Z" style="fill:#0060a2;fill-rule:nonzero;"/><rect x="539.749" y="244.144" width="10.393" height="253.799" style="fill:#0060a2;"/><path d="M849.752,60.023c13.166,72.683 -33.792,132.648 -104.861,171.519c-80.166,-11.474 -145.169,-51.211 -158.314,-123.854c-16.874,-93.172 114.722,-116.982 129.599,-34.74c-14.877,-82.242 116.703,-106.073 133.576,-12.925" style="fill:#91c846;fill-rule:nonzero;"/></g></svg>