<?xml version="1.0" encoding="UTF-8" standalone="no"?><!DOCTYPE svg PUBLIC "-//W3C//DTD SVG 1.1//EN" "http://www.w3.org/Graphics/SVG/1.1/DTD/svg11.dtd"><svg width="100%" height="100%" viewBox="0 0 454 114" version="1.1" xmlns="http://www.w3.org/2000/svg" xmlns:xlink="http://www.w3.org/1999/xlink" xml:space="preserve" xmlns:serif="http://www.serif.com/" style="fill-rule:evenodd;clip-rule:evenodd;stroke-linejoin:round;stroke-miterlimit:2;"><g id="Ebene-1" serif:id="Ebene 1"><g><path d="M17.063,95.165l3.855,0c1.234,0 2.174,-0.293 2.822,-0.881c0.648,-0.586 0.973,-1.404 0.973,-2.453c-0,-1.041 -0.323,-1.873 -0.966,-2.49c-0.645,-0.617 -1.559,-0.934 -2.745,-0.947l-3.938,0l-0,6.771Zm-0,1.074l-0,6.129l-1.271,0l-0,-15.049l5.126,0c1.564,0 2.799,0.399 3.706,1.2c0.906,0.798 1.359,1.898 1.359,3.296c-0,1.413 -0.436,2.504 -1.307,3.272c-0.872,0.769 -2.135,1.152 -3.79,1.152l-3.823,0Z" style="fill:#000;fill-rule:nonzero;"/><path d="M30.99,97.068l6.037,-0l-3.018,-8.197l-3.019,8.197Zm6.44,1.074l-6.833,-0l-1.55,4.227l-1.333,-0l5.695,-15.049l1.209,-0l5.696,15.049l-1.324,-0l-1.56,-4.227Z" style="fill:#000;fill-rule:nonzero;"/><path d="M45.682,95.021l3.896,-0c1.069,-0 1.927,-0.305 2.575,-0.912c0.647,-0.608 0.971,-1.393 0.971,-2.361c-0,-1.061 -0.338,-1.887 -1.013,-2.473c-0.675,-0.586 -1.623,-0.881 -2.843,-0.881l-3.586,-0l-0,6.627Zm4.373,1.074l-4.373,-0l-0,6.274l-1.282,-0l-0,-15.049l4.889,-0c1.606,-0 2.86,0.389 3.763,1.166c0.902,0.777 1.354,1.865 1.354,3.262c-0,0.964 -0.283,1.814 -0.848,2.55c-0.565,0.737 -1.323,1.246 -2.273,1.528l3.762,6.41l-0,0.133l-1.354,-0l-3.638,-6.274Z" style="fill:#000;fill-rule:nonzero;"/><path d="M69.159,88.394l-5.158,-0l-0,13.975l-1.271,-0l-0,-13.975l-5.148,-0l-0,-1.074l11.577,-0l-0,1.074Z" style="fill:#000;fill-rule:nonzero;"/><path d="M84.698,102.368l-1.271,0l-8.652,-12.879l-0,12.879l-1.282,0l-0,-15.049l1.282,0l8.662,12.889l-0,-12.889l1.261,0l-0,15.049Z" style="fill:#000;fill-rule:nonzero;"/><path d="M98.737,95.154l-7.039,-0l0,6.141l8.094,-0l0,1.074l-9.365,-0l0,-15.049l9.313,-0l0,1.074l-8.042,-0l0,5.686l7.039,-0l0,1.074Z" style="fill:#000;fill-rule:nonzero;"/><path d="M105.625,95.021l3.896,-0c1.069,-0 1.927,-0.305 2.575,-0.912c0.647,-0.608 0.971,-1.393 0.971,-2.361c0,-1.061 -0.338,-1.887 -1.012,-2.473c-0.676,-0.586 -1.623,-0.881 -2.843,-0.881l-3.587,-0l0,6.627Zm4.373,1.074l-4.373,-0l0,6.274l-1.282,-0l0,-15.049l4.889,-0c1.606,-0 2.86,0.389 3.763,1.166c0.903,0.777 1.354,1.865 1.354,3.262c0,0.964 -0.283,1.814 -0.848,2.55c-0.564,0.737 -1.322,1.246 -2.273,1.528l3.762,6.41l0,0.133l-1.354,-0l-3.638,-6.274Z" style="fill:#000;fill-rule:nonzero;"/><path d="M128.042,88.394l0,12.9l2.853,-0c1.584,-0 2.856,-0.525 3.814,-1.578c0.958,-1.051 1.437,-2.472 1.437,-4.267l0,-1.323c0,-1.732 -0.473,-3.117 -1.417,-4.16c-0.944,-1.041 -2.188,-1.566 -3.731,-1.572l-2.956,-0Zm-1.271,13.975l-0,-15.049l4.206,-0c1.233,-0 2.339,0.281 3.318,0.842c0.978,0.562 1.742,1.367 2.29,2.414c0.548,1.047 0.821,2.238 0.821,3.576l-0,1.385c-0,1.343 -0.272,2.537 -0.816,3.578c-0.544,1.039 -1.311,1.842 -2.3,2.408c-0.989,0.564 -2.124,0.846 -3.406,0.846l-4.113,-0Z" style="fill:#000;fill-rule:nonzero;"/><path d="M150.847,95.154l-7.039,-0l0,6.141l8.093,-0l0,1.074l-9.365,-0l0,-15.049l9.313,-0l0,1.074l-8.041,-0l0,5.686l7.039,-0l0,1.074Z" style="fill:#000;fill-rule:nonzero;"/><path d="M157.734,95.021l3.897,-0c1.068,-0 1.926,-0.305 2.574,-0.912c0.647,-0.608 0.972,-1.393 0.972,-2.361c0,-1.061 -0.338,-1.887 -1.013,-2.473c-0.676,-0.586 -1.623,-0.881 -2.843,-0.881l-3.587,-0l0,6.627Zm4.373,1.074l-4.373,-0l0,6.274l-1.281,-0l0,-15.049l4.888,-0c1.606,-0 2.86,0.389 3.763,1.166c0.903,0.777 1.354,1.865 1.354,3.262c0,0.964 -0.282,1.814 -0.848,2.55c-0.564,0.737 -1.322,1.246 -2.273,1.528l3.762,6.41l0,0.133l-1.354,-0l-3.638,-6.274Z" style="fill:#000;fill-rule:nonzero;"/><path d="M187.397,98.669c-0,-0.834 -0.293,-1.494 -0.878,-1.98c-0.587,-0.487 -1.659,-0.948 -3.215,-1.385c-1.558,-0.438 -2.696,-0.916 -3.411,-1.432c-1.02,-0.73 -1.53,-1.687 -1.53,-2.873c-0,-1.15 0.472,-2.086 1.421,-2.807c0.947,-0.72 2.159,-1.08 3.633,-1.08c1,0 1.893,0.194 2.683,0.578c0.788,0.387 1.4,0.924 1.835,1.614c0.434,0.689 0.649,1.457 0.649,2.304l-1.28,0c-0,-1.029 -0.351,-1.857 -1.054,-2.482c-0.703,-0.627 -1.648,-0.937 -2.833,-0.937c-1.15,0 -2.067,0.255 -2.75,0.769c-0.681,0.516 -1.023,1.186 -1.023,2.014c0,0.767 0.306,1.39 0.919,1.875c0.614,0.482 1.596,0.908 2.947,1.279c1.35,0.367 2.373,0.75 3.07,1.147c0.695,0.396 1.219,0.871 1.57,1.421c0.352,0.551 0.529,1.202 0.529,1.954c-0,1.185 -0.475,2.136 -1.422,2.853c-0.947,0.717 -2.197,1.074 -3.746,1.074c-1.063,0 -2.035,-0.189 -2.921,-0.568c-0.886,-0.379 -1.558,-0.91 -2.016,-1.592c-0.459,-0.682 -0.687,-1.465 -0.687,-2.346l1.272,0c-0,1.061 0.395,1.899 1.189,2.512c0.792,0.613 1.846,0.92 3.163,0.92c1.171,0 2.112,-0.26 2.821,-0.775c0.71,-0.518 1.065,-1.203 1.065,-2.057" style="fill:#000;fill-rule:nonzero;"/><path d="M194.594,95.165l3.855,0c1.234,0 2.175,-0.293 2.823,-0.881c0.647,-0.586 0.971,-1.404 0.971,-2.453c-0,-1.041 -0.322,-1.873 -0.966,-2.49c-0.645,-0.617 -1.559,-0.934 -2.745,-0.947l-3.938,0l-0,6.771Zm-0,1.074l-0,6.129l-1.271,0l-0,-15.049l5.126,0c1.564,0 2.8,0.399 3.707,1.2c0.905,0.798 1.358,1.898 1.358,3.296c-0,1.413 -0.436,2.504 -1.307,3.272c-0.872,0.769 -2.134,1.152 -3.789,1.152l-3.824,0Z" style="fill:#000;fill-rule:nonzero;"/><rect x="208.541" y="87.319" width="1.271" height="15.049" style="fill:#000;"/><path d="M225.713,88.394l-5.157,-0l0,13.975l-1.272,-0l0,-13.975l-5.148,-0l0,-1.074l11.577,-0l0,1.074Z" style="fill:#000;fill-rule:nonzero;"/><path d="M230.616,101.294l9.292,0l-0,1.074l-10.833,0l-0,-0.961l8.931,-13.013l-8.661,0l-0,-1.075l10.232,0l-0,0.901l-8.961,13.074Z" style="fill:#000;fill-rule:nonzero;"/><path d="M252.925,95.154l-7.04,-0l0,6.141l8.094,-0l0,1.074l-9.365,-0l0,-15.049l9.314,-0l0,1.074l-8.043,-0l0,5.686l7.04,-0l0,1.074Z" style="fill:#000;fill-rule:nonzero;"/><path d="M269.766,102.368l-1.271,0l-8.653,-12.879l0,12.879l-1.28,0l0,-15.049l1.28,0l8.662,12.889l0,-12.889l1.262,0l0,15.049Z" style="fill:#000;fill-rule:nonzero;"/><path d="M286.36,100.581c-0.441,0.627 -1.132,1.117 -2.072,1.467c-0.942,0.351 -1.994,0.527 -3.158,0.527c-1.178,0 -2.226,-0.281 -3.143,-0.848c-0.916,-0.564 -1.626,-1.363 -2.129,-2.396c-0.503,-1.035 -0.759,-2.221 -0.765,-3.557l-0,-1.902c-0,-2.088 0.528,-3.736 1.581,-4.945c1.055,-1.211 2.47,-1.815 4.249,-1.815c1.55,0 2.797,0.395 3.742,1.184c0.944,0.789 1.506,1.877 1.685,3.262l-1.272,0c-0.186,-1.106 -0.635,-1.946 -1.348,-2.514c-0.714,-0.57 -1.646,-0.856 -2.797,-0.856c-1.405,0 -2.519,0.5 -3.339,1.498c-0.82,1 -1.23,2.411 -1.23,4.233l-0,1.779c-0,1.145 0.195,2.156 0.585,3.035c0.389,0.879 0.946,1.561 1.674,2.043c0.727,0.483 1.563,0.725 2.507,0.725c1.095,0 2.036,-0.172 2.822,-0.518c0.51,-0.226 0.888,-0.492 1.137,-0.795l-0,-3.886l-4.042,0l-0,-1.076l5.313,0l-0,5.355Z" style="fill:#000;fill-rule:nonzero;"/><path d="M293.557,97.068l6.036,-0l-3.018,-8.197l-3.018,8.197Zm6.438,1.074l-6.832,-0l-1.549,4.227l-1.334,-0l5.696,-15.049l1.208,-0l5.696,15.049l-1.323,-0l-1.562,-4.227Z" style="fill:#000;fill-rule:nonzero;"/><path d="M315.515,98.669c0,-0.834 -0.294,-1.494 -0.879,-1.98c-0.586,-0.487 -1.657,-0.948 -3.215,-1.385c-1.557,-0.438 -2.694,-0.916 -3.411,-1.432c-1.019,-0.73 -1.529,-1.687 -1.529,-2.873c0,-1.15 0.473,-2.086 1.421,-2.807c0.947,-0.72 2.159,-1.08 3.634,-1.08c0.999,0 1.892,0.194 2.681,0.578c0.789,0.387 1.402,0.924 1.835,1.614c0.434,0.689 0.651,1.457 0.651,2.304l-1.281,0c0,-1.029 -0.352,-1.857 -1.054,-2.482c-0.704,-0.627 -1.648,-0.937 -2.832,-0.937c-1.152,0 -2.068,0.255 -2.75,0.769c-0.683,0.516 -1.024,1.186 -1.024,2.014c0,0.767 0.307,1.39 0.921,1.875c0.612,0.482 1.595,0.908 2.945,1.279c1.351,0.367 2.374,0.75 3.07,1.147c0.696,0.396 1.22,0.871 1.571,1.421c0.351,0.551 0.527,1.202 0.527,1.954c0,1.185 -0.473,2.136 -1.421,2.853c-0.948,0.717 -2.196,1.074 -3.747,1.074c-1.061,0 -2.034,-0.189 -2.92,-0.568c-0.885,-0.379 -1.557,-0.91 -2.015,-1.592c-0.459,-0.682 -0.689,-1.465 -0.689,-2.346l1.273,0c0,1.061 0.395,1.899 1.188,2.512c0.792,0.613 1.847,0.92 3.163,0.92c1.172,0 2.112,-0.26 2.822,-0.775c0.71,-0.518 1.065,-1.203 1.065,-2.057" style="fill:#000;fill-rule:nonzero;"/><path d="M331.653,88.394l-5.157,-0l-0,13.975l-1.271,-0l-0,-13.975l-5.148,-0l-0,-1.074l11.576,-0l-0,1.074Z" style="fill:#000;fill-rule:nonzero;"/><path d="M337.239,95.021l3.896,-0c1.069,-0 1.926,-0.305 2.575,-0.912c0.647,-0.608 0.971,-1.393 0.971,-2.361c-0,-1.061 -0.338,-1.887 -1.013,-2.473c-0.674,-0.586 -1.622,-0.881 -2.842,-0.881l-3.587,-0l-0,6.627Zm4.372,1.074l-4.372,-0l-0,6.274l-1.281,-0l-0,-15.049l4.888,-0c1.606,-0 2.861,0.389 3.763,1.166c0.902,0.777 1.354,1.865 1.354,3.262c-0,0.964 -0.283,1.814 -0.847,2.55c-0.565,0.737 -1.324,1.246 -2.274,1.528l3.762,6.41l-0,0.133l-1.354,-0l-3.639,-6.274Z" style="fill:#000;fill-rule:nonzero;"/><path d="M361.181,94.027c0,-1.812 -0.41,-3.23 -1.229,-4.258c-0.821,-1.025 -1.944,-1.539 -3.371,-1.539c-1.399,-0 -2.513,0.514 -3.343,1.545c-0.83,1.029 -1.246,2.469 -1.246,4.314l0,1.573c0,1.785 0.414,3.197 1.241,4.242c0.826,1.043 1.949,1.566 3.369,1.566c1.44,-0 2.563,-0.515 3.37,-1.545c0.806,-1.031 1.209,-2.464 1.209,-4.306l0,-1.592Zm1.271,1.635c0,1.385 -0.239,2.601 -0.717,3.648c-0.48,1.047 -1.163,1.854 -2.052,2.418c-0.89,0.567 -1.917,0.848 -3.081,0.848c-1.758,-0 -3.177,-0.627 -4.259,-1.887c-1.081,-1.258 -1.622,-2.953 -1.622,-5.09l0,-1.551c0,-1.371 0.243,-2.585 0.729,-3.642c0.485,-1.059 1.172,-1.871 2.062,-2.44c0.889,-0.57 1.912,-0.853 3.069,-0.853c1.159,-0 2.179,0.279 3.066,0.838c0.886,0.558 1.569,1.347 2.052,2.367c0.481,1.02 0.733,2.201 0.753,3.545l0,1.799Z" style="fill:#000;fill-rule:nonzero;"/><path d="M378.767,102.368l-1.272,0l-8.652,-12.879l0,12.879l-1.281,0l0,-15.049l1.281,0l8.662,12.889l0,-12.889l1.262,0l0,15.049Z" style="fill:#000;fill-rule:nonzero;"/><path d="M394.347,94.027c0,-1.812 -0.41,-3.23 -1.229,-4.258c-0.821,-1.025 -1.944,-1.539 -3.371,-1.539c-1.399,-0 -2.513,0.514 -3.343,1.545c-0.83,1.029 -1.246,2.469 -1.246,4.314l0,1.573c0,1.785 0.413,3.197 1.241,4.242c0.826,1.043 1.949,1.566 3.369,1.566c1.44,-0 2.563,-0.515 3.37,-1.545c0.806,-1.031 1.209,-2.464 1.209,-4.306l0,-1.592Zm1.271,1.635c0,1.385 -0.239,2.601 -0.717,3.648c-0.48,1.047 -1.163,1.854 -2.052,2.418c-0.89,0.567 -1.917,0.848 -3.081,0.848c-1.758,-0 -3.177,-0.627 -4.259,-1.887c-1.082,-1.258 -1.622,-2.953 -1.622,-5.09l0,-1.551c0,-1.371 0.243,-2.585 0.729,-3.642c0.485,-1.059 1.172,-1.871 2.062,-2.44c0.888,-0.57 1.912,-0.853 3.069,-0.853c1.159,-0 2.179,0.279 3.066,0.838c0.885,0.558 1.569,1.347 2.052,2.367c0.481,1.02 0.733,2.201 0.753,3.545l0,1.799Z" style="fill:#000;fill-rule:nonzero;"/><path d="M402.413,87.32l5.551,13.281l5.571,-13.281l1.694,-0l-0,15.049l-1.27,-0l-0,-6.553l0.103,-6.719l-5.602,13.272l-0.983,-0l-5.582,-13.221l0.104,6.627l-0,6.594l-1.271,-0l-0,-15.049l1.685,-0Z" style="fill:#000;fill-rule:nonzero;"/><rect x="421.229" y="87.319" width="1.271" height="15.049" style="fill:#000;"/><path d="M436.799,95.154l-7.04,-0l0,6.141l8.094,-0l0,1.074l-9.366,-0l0,-15.049l9.314,-0l0,1.074l-8.042,-0l0,5.686l7.04,-0l0,1.074Z" style="fill:#000;fill-rule:nonzero;"/><path d="M120.002,28.351c-1.269,-1.1 -1.436,-1.416 -1.436,-2.729c0,-1.591 0.8,-4.234 2.087,-6.9c0.934,-1.93 1.655,-2.092 4.228,-0.937c3.547,1.587 8.853,2.08 14.231,1.318c2.194,-0.311 2.942,-0.307 3.258,0.012c0.839,0.849 -0.482,2.154 -4.06,4.017c-1.899,0.987 -3.987,2.201 -4.639,2.698c-2.881,2.189 -7.117,3.767 -10.114,3.767c-1.932,-0 -2.245,-0.109 -3.555,-1.246m267.404,2.49c-1.525,-0.672 -2.549,-2.142 -2.549,-3.664c0,-2.92 2.203,-8.215 3.562,-8.56c0.496,-0.127 1.625,0.142 2.916,0.693c1.16,0.494 3.556,1.145 5.328,1.451c2.909,0.496 3.63,0.498 7.475,0.022c3.502,-0.436 4.339,-0.45 4.718,-0.075c0.704,0.692 -0.993,2.332 -3.985,3.846c-1.37,0.695 -3.225,1.764 -4.121,2.373c-5.247,3.574 -10.576,5.137 -13.344,3.914m-193.348,14.676c1.527,-1.414 3.536,-4.857 3.536,-6.057c0,-0.64 -0.144,-1.164 -0.318,-1.164c-0.447,-0 -4.701,4.991 -5.368,6.297c-1.05,2.055 0.303,2.637 2.15,0.924m-101.48,-0.943c1.579,-1.711 3.237,-4.729 2.827,-5.145c-0.393,-0.396 -2.71,1.16 -4.183,2.811c-1.607,1.797 -2.494,4.011 -1.786,4.455c0.582,0.363 1.287,-0.114 3.142,-2.121m-16.962,22.765c-1.745,-0.787 -4.342,-3.5 -5.656,-5.904c-3.186,-5.834 -2.437,-8.891 4.282,-17.48c4.54,-5.805 7.982,-9.149 10.809,-10.5c6.529,-3.12 12.028,-4.036 15.305,-2.547c1.888,0.855 3.013,1.9 3.302,3.068c0.285,1.146 -0.665,5.039 -2.123,8.703c-2.025,5.084 -3.671,7.18 -7.801,9.926c-3.599,2.394 -5.873,3.189 -8.219,2.873c-2.079,-0.277 -3.643,0.33 -3.942,1.533c-0.258,1.045 0.564,1.815 1.94,1.815c2.585,-0 7.033,-1.868 8.864,-3.717c0.444,-0.451 1.223,-1.084 1.731,-1.408c2.285,-1.457 5.508,-4.147 11.449,-9.555c5.179,-4.713 6.765,-6.379 8.288,-8.709c2.609,-3.988 3.31,-4.596 4.959,-4.295c1.366,0.248 6.929,3.266 8.266,4.482c0.425,0.387 0.772,0.954 0.772,1.252c0,0.303 -1.768,3.135 -3.929,6.291c-3.909,5.713 -6.877,10.832 -6.662,11.491c0.399,1.209 11.934,-8.953 15.355,-13.528c1.095,-1.463 3.418,-4.814 5.165,-7.445c3.728,-5.615 3.644,-5.58 7.837,-3.377c3.098,1.629 4.572,3.057 4.565,4.428c-0.003,0.521 -0.641,2.125 -1.418,3.56c-1.607,2.971 -2.11,4.42 -1.641,4.717c0.537,0.334 3.732,-1.76 7.186,-4.711c1.795,-1.535 4.501,-3.742 6.014,-4.908c2.677,-2.063 2.793,-2.113 4.425,-1.926c0.921,0.106 2.053,0.473 2.513,0.815c0.461,0.339 1.718,1.099 2.792,1.687c1.074,0.588 2.181,1.483 2.462,1.986c0.471,0.85 0.439,1.051 -0.432,2.76c-0.514,1.012 -1.538,2.703 -2.273,3.756c-0.735,1.053 -2.513,4.072 -3.952,6.713c-1.44,2.641 -2.849,5.158 -3.133,5.594c-0.594,0.92 -0.388,1.263 0.765,1.263c0.886,-0 2.845,-0.904 2.847,-1.314c0,-0.139 0.889,-0.721 1.974,-1.295c2.769,-1.465 6.659,-5.562 9.708,-10.227c1.416,-2.167 3.813,-5.242 5.325,-6.826c3.403,-3.572 4.418,-3.992 13.229,-5.476c6.01,-1.014 6.426,-1.043 7.626,-0.522c2.995,1.307 3.58,6.09 1.288,10.541c-1.372,2.67 -7.813,11.039 -9.573,12.446c-1.659,1.324 -3.5,1.75 -6.014,1.388c-1.15,-0.164 -2.551,-0.215 -3.117,-0.113c-1.333,0.242 -2.097,1.725 -1.667,3.238c0.629,2.225 3.924,2.041 7.157,-0.396c0.948,-0.715 3.114,-2.227 4.815,-3.364c4.247,-2.835 10.716,-9.304 15.104,-15.099c1.969,-2.602 4.503,-5.649 5.632,-6.774c2.033,-2.029 2.064,-2.043 3.604,-1.808c3.058,0.465 4.217,2.377 3.927,6.484c-0.093,1.295 -0.053,2.543 0.085,2.772c0.455,0.746 2.551,-0.616 5.622,-3.651c4.534,-4.476 6.942,-5.265 9.482,-3.099c0.939,0.8 1.042,1.084 1.042,2.916c0,1.115 -0.247,3.004 -0.549,4.195c-0.708,2.797 -0.35,3.807 1.357,3.807c0.643,-0 1.356,-0.231 1.585,-0.51c0.229,-0.279 0.746,-0.613 1.148,-0.742c0.401,-0.131 2.359,-1.215 4.348,-2.41c1.993,-1.198 4.223,-2.43 4.962,-2.741c1.207,-0.511 1.421,-0.515 2.143,-0.035c0.439,0.291 0.898,0.93 1.019,1.418c0.323,1.297 -0.969,2.483 -5.3,4.863c-2.02,1.11 -6.685,3.733 -10.371,5.832c-7.137,4.063 -9.572,5.112 -11.822,5.104c-1.724,-0.006 -1.929,-0.139 -3.077,-1.994c-0.545,-0.883 -1.174,-1.479 -1.557,-1.479c-0.806,-0 -8.031,7.891 -10.578,11.553c-2.759,3.971 -4.476,5.147 -7.498,5.143c-1.226,-0.002 -4.366,-1.745 -5.129,-2.848c-0.892,-1.291 -0.751,-2.002 1.658,-8.369c0.488,-1.289 0.76,-2.348 0.603,-2.348c-0.319,-0 -6.31,4.463 -9.702,7.227c-8.265,6.736 -7.96,6.584 -11.993,6.011c-3.866,-0.548 -7.482,-2.099 -9.696,-4.162c-1.641,-1.527 -1.762,-1.756 -1.913,-3.613c-0.09,-1.09 -0.282,-1.982 -0.426,-1.982c-0.144,-0 -1.221,0.713 -2.392,1.586c-1.169,0.873 -3.868,2.593 -5.993,3.828c-3.587,2.078 -4.016,2.24 -5.948,2.24c-4.484,-0 -8.42,-2.127 -9.38,-5.072c-0.574,-1.762 -0.279,-3.414 1.153,-6.434c1.325,-2.801 1.656,-4.185 1.046,-4.396c-0.658,-0.229 -4.214,3.357 -7.658,7.722c-1.81,2.295 -4.317,5.233 -5.569,6.524c-2.068,2.14 -2.399,2.351 -3.671,2.351c-1.638,-0 -5.377,-1.504 -6.57,-2.646c-0.753,-0.721 -0.827,-1.049 -0.766,-3.426c0.052,-2.059 -0.037,-2.627 -0.418,-2.627c-0.529,-0 -2.55,1.412 -5.406,3.775c-1.97,1.629 -7.867,4.791 -9.251,4.957c-1.223,0.147 -4.175,-0.947 -5.832,-2.16c-0.81,-0.595 -1.694,-1.654 -2.049,-2.455c-0.567,-1.283 -0.578,-1.588 -0.137,-3.508c0.266,-1.156 0.426,-2.16 0.354,-2.232c-0.294,-0.299 -3.633,1.432 -6.392,3.312c-1.619,1.102 -5.493,3.479 -8.612,5.28c-5.5,3.176 -5.739,3.277 -8.073,3.379c-1.631,0.068 -2.794,-0.075 -3.609,-0.442m229.789,1.328c-0.608,-0.093 -1.967,-1.175 -3.848,-3.062c-3.645,-3.658 -3.94,-4.498 -3.147,-8.899c0.632,-3.488 0.683,-4.714 0.213,-5.007c-0.533,-0.334 -3.216,2.392 -5.931,6.017c-4.367,5.836 -6.812,7.721 -10.013,7.721c-1.709,-0 -1.864,-0.082 -3.776,-2c-3.205,-3.215 -5.373,-7.879 -5.373,-11.561c-0,-1.394 0.276,-2.005 2.121,-4.72c5.29,-7.782 9.605,-12.91 13.189,-15.682c3.196,-2.469 3.59,-3.129 1.658,-2.764c-1.235,0.233 -2.91,0.961 -5.456,2.373c-2.857,1.584 -8.84,4.082 -9.78,4.082c-1.6,-0 -4.094,-1.459 -6.058,-3.541c-2.646,-2.804 -4.951,-5.984 -4.951,-6.824c-0,-1.211 1.725,-1.82 7.168,-2.529c6.204,-0.809 8.012,-1.156 10.58,-2.02c1.105,-0.371 3.401,-1.019 5.103,-1.441c4.204,-1.043 8.975,-2.873 12.833,-4.922c3.51,-1.867 4.356,-1.943 6.947,-0.625c1.492,0.76 3.649,3.117 4.305,4.703c0.96,2.33 0.817,2.584 -4.416,7.887c-3.719,3.771 -5.803,6.256 -8.675,10.353c-2.079,2.965 -4.534,6.411 -5.456,7.657c-2.014,2.717 -3.08,4.988 -2.787,5.925c0.296,0.944 0.815,0.866 2.735,-0.423c1.474,-0.989 2.737,-2.385 6.763,-7.479c0.633,-0.801 2.387,-2.996 3.899,-4.877c3.139,-3.906 10.042,-13.308 12.979,-17.678c1.907,-2.834 3.257,-4.001 4.633,-4.001c0.918,-0 3.771,1.894 5.667,3.759c1.451,1.43 1.633,1.774 1.633,3.114c-0,1.625 -0.61,3.041 -2.754,6.4c-0.753,1.182 -1.369,2.297 -1.369,2.482c0,0.184 -2.49,5.1 -5.534,10.918c-5.454,10.438 -6.622,13.342 -5.363,13.342c0.293,-0 1.202,-0.678 2.022,-1.508c1.644,-1.668 12.508,-18.552 13.86,-21.539c1.174,-2.597 1.409,-4.652 0.719,-6.32c-1.065,-2.586 -0.853,-3.141 2.457,-6.369c3.395,-3.313 5.368,-4.455 7.059,-4.086c1.913,0.416 4.243,2.471 6.221,5.488c2.92,4.453 2.876,5.824 -0.321,9.799c-1.839,2.287 -9.159,13.9 -10.64,16.883c-1.42,2.857 -4.161,6.914 -5.963,8.822c-2.593,2.746 -8.484,6.457 -16.432,10.352c-4.013,1.966 -4.61,2.127 -6.721,1.8m-257.558,0.6c-3.837,-0.916 -6.099,-8.193 -4.163,-13.393c0.629,-1.691 1.427,-2.767 4.263,-5.742c3.672,-3.851 4.991,-5.441 4.991,-6.011c0,-0.489 -5.414,0.031 -6.553,0.626c-1.388,0.725 -4.018,3.821 -6.971,8.198c-1.474,2.181 -4.096,6.076 -5.829,8.656c-3.498,5.199 -4.687,6.271 -6.958,6.271c-1.959,-0 -3.226,-1.394 -5.598,-6.166c-2.022,-4.064 -1.416,-6.152 3.373,-11.646l2.219,-2.543l-1.297,-0.109c-0.711,-0.061 -2.359,0.136 -3.659,0.435c-3.065,0.705 -3.641,0.686 -4.814,-0.16c-1.959,-1.412 -2.12,-6.186 -0.271,-8.059c0.652,-0.66 0.976,-0.703 3.847,-0.507c4.05,0.275 11.306,-0.469 12.927,-1.327c2.219,-1.171 3.854,-2.736 5.387,-5.162c0.838,-1.324 2.484,-3.447 3.657,-4.72c3.098,-3.36 4.7,-5.436 4.7,-6.09c-0,-0.315 -0.131,-0.572 -0.291,-0.572c-0.881,-0 -4.758,1.644 -7.93,3.367c-11.911,6.459 -14.934,7.765 -17.94,7.765c-2.648,-0 -3.109,-0.394 -5.057,-4.341c-2.804,-5.684 -2.503,-6.241 3.557,-6.565c3.845,-0.207 4.96,-0.467 9.919,-2.291c1.536,-0.564 4.882,-1.678 7.434,-2.475c2.549,-0.796 6.649,-2.228 9.105,-3.185c5.493,-2.135 7.284,-2.705 8.509,-2.711c1.222,-0.004 5.322,2.986 6.547,4.775c2.035,2.977 1.483,5.338 -2.388,10.209c-1.432,1.805 -2.728,3.598 -2.875,3.987c-0.148,0.388 -1.279,1.91 -2.513,3.379c-1.234,1.47 -2.353,3.021 -2.485,3.443c-0.361,1.154 0.639,1.697 3.086,1.674c3.538,-0.033 4.331,-0.576 10.54,-7.246c8.156,-8.76 15.187,-13.93 21.998,-16.174c4.343,-1.43 5.467,-1.49 7.308,-0.399c3.033,1.801 3.835,4.237 1.929,5.86c-0.564,0.48 -1.882,1.199 -2.928,1.594c-2.808,1.064 -5.238,2.363 -7.558,4.037c-3.891,2.81 -10.065,9.824 -16.994,19.306c-2.152,2.946 -6.885,12.02 -6.885,13.198c-0,0.341 0.54,1.339 1.201,2.216c0.663,0.877 1.203,1.969 1.203,2.426c-0,0.91 -0.782,1.354 -6.013,3.41c-1.512,0.594 -3.522,1.436 -4.466,1.869c-2.109,0.969 -3.767,1.25 -5.264,0.893m310.877,-22.461c1.721,-1.631 3.815,-5.133 3.348,-5.603c-0.816,-0.829 -5.461,3.466 -6.027,5.568c-0.582,2.172 0.412,2.184 2.679,0.035m52.343,12.404c2.124,0.397 2.199,0.383 4.813,-0.838c1.462,-0.685 2.759,-1.511 2.883,-1.841c0.229,-0.608 -0.064,-0.924 -3.289,-3.553c-1.67,-1.361 -1.772,-2.231 -0.451,-3.742c0.795,-0.908 1.329,-1.127 3.679,-1.51c2.363,-0.385 6.566,-1.836 8.002,-2.766c0.355,-0.228 0.364,-0.791 0.04,-2.865c-0.223,-1.42 -0.591,-2.787 -0.82,-3.037c-0.621,-0.682 -1.994,-0.195 -4.773,1.695c-1.958,1.334 -2.724,2.129 -3.822,3.979c-1.36,2.285 -7.914,11.769 -9.718,14.058l-0.931,1.186l1.114,-0.584c0.964,-0.506 1.407,-0.529 3.273,-0.182m-30.191,20.323c-1.191,-1.84 -0.064,-4.424 5.011,-11.487c1.926,-2.679 3.723,-5.3 3.993,-5.828c0.447,-0.865 0.437,-0.957 -0.096,-0.957c-0.324,-0 -1.619,0.631 -2.88,1.401c-1.258,0.771 -4.128,2.265 -6.377,3.318c-3.23,1.516 -4.32,1.877 -5.195,1.717c-2.71,-0.491 -5.731,-2.473 -6.783,-4.453c-0.598,-1.125 -0.629,-1.448 -0.257,-2.848c0.645,-2.449 0.569,-3.055 -0.356,-2.768c-1.228,0.383 -2.656,1.18 -5.24,2.92c-1.323,0.891 -5.13,3.221 -8.459,5.178c-6.851,4.029 -8.155,4.422 -11.244,3.383c-4.116,-1.385 -8.372,-7.559 -8.368,-12.143c-0,-1.572 1.185,-4.765 2.494,-6.724c1.647,-2.463 7.107,-9.024 9.454,-11.364c2.488,-2.476 3.912,-3.351 8.271,-5.084c6.144,-2.439 9.228,-2.636 12.778,-0.816c3.126,1.6 3.261,2.814 1.081,9.578c-1.766,5.471 -3.732,8.32 -7.769,11.258c-3.563,2.592 -5.724,3.424 -8.686,3.338c-2.748,-0.08 -4.155,0.469 -4.155,1.613c-0,1.035 0.74,1.451 2.581,1.451c2.835,-0 5.524,-1.318 10.734,-5.267c8.015,-6.078 16.084,-13.828 18.965,-18.221c2.15,-3.275 2.916,-3.981 4.332,-3.992c1.147,-0.008 7.399,3.062 8.656,4.254c0.425,0.402 0.774,1.019 0.774,1.373c-0,0.353 -2.151,3.902 -4.778,7.886c-2.628,3.987 -5.258,8.211 -5.847,9.389l-1.067,2.145l0.9,-0c1.506,-0 4.761,-2.02 8.824,-5.471c2.124,-1.801 5.254,-4.426 6.961,-5.83c5.478,-4.51 9.448,-9.295 13.677,-16.486c2.047,-3.483 4.108,-6.797 4.576,-7.36c1.275,-1.533 2.959,-1.851 8.748,-1.648c5.467,0.191 6.928,0.588 7.118,1.933c0.109,0.778 -0.215,1.272 -4.047,6.151c-0.774,0.986 -1.233,1.869 -1.063,2.041c0.169,0.172 1.147,-0.092 2.259,-0.608c3.604,-1.67 5.28,-1.009 7.327,2.879c0.934,1.772 1.151,2.672 1.461,6.02c0.51,5.523 0.01,8.156 -1.973,10.379c-1.296,1.455 -2.333,1.896 -5.28,2.25c-1.773,0.213 -3.435,1.179 -3.435,2c-0,0.168 0.545,0.537 1.213,0.818c1.623,0.687 4.514,3.561 4.816,4.783c0.483,1.963 -0.022,2.346 -8.144,6.174c-7.335,3.459 -7.779,3.619 -9.921,3.602c-1.866,-0.016 -2.607,-0.217 -4.425,-1.2c-1.201,-0.648 -3.032,-1.99 -4.069,-2.982c-1.764,-1.691 -1.875,-1.895 -1.753,-3.205c0.073,-0.77 0.029,-1.334 -0.097,-1.256c-0.125,0.08 -2.509,3.205 -5.295,6.945c-2.785,3.741 -5.734,7.395 -6.549,8.121c-2.711,2.416 -8.095,4.567 -11.432,4.567c-1.116,-0 -1.518,-0.178 -1.964,-0.867" style="fill:#000;fill-rule:nonzero;"/></g></g></svg>