<?xml version="1.0" encoding="UTF-8" standalone="no"?><!DOCTYPE svg PUBLIC "-//W3C//DTD SVG 1.1//EN" "http://www.w3.org/Graphics/SVG/1.1/DTD/svg11.dtd"><svg width="100%" height="100%" viewBox="0 0 4888 4536" version="1.1" xmlns="http://www.w3.org/2000/svg" xmlns:xlink="http://www.w3.org/1999/xlink" xml:space="preserve" xmlns:serif="http://www.serif.com/" style="fill-rule:evenodd;clip-rule:evenodd;stroke-miterlimit:10;"><g><g id="gruen"><path d="M1425.4,1567.21c0,0 -46.283,166.693 -110.745,247.488c-64.462,80.793 -233.356,151.986 -276.863,278.553c-50.407,146.639 68.889,269.685 114.7,324.325c97.225,115.959 142.387,254.45 142.387,254.45l177.984,-930.787l-47.463,-174.029Z" style="fill:#0c9146;"/><path d="M933.024,2110.78c40.999,-57.163 -18.169,-152.171 -67.083,-188.745c-48.912,-36.573 -128.151,-110.733 -224.656,-89.629c-96.506,21.104 -144.727,39.825 -183.163,112.683c-32.908,62.38 0.152,197.867 55.628,220.788c55.476,22.922 152.089,-42.681 237.561,-44.347c85.473,-1.666 149.093,34.729 181.713,-10.75" style="fill:#0c9146;"/><path d="M2727.02,474.623c-0,-0 43.06,-67.666 22.555,-155.838c-20.504,-88.171 -90.221,-94.322 -79.969,-186.595c10.253,-92.271 106.625,-153.785 180.444,-125.079c73.817,28.707 86.871,96.232 64.316,196.707c-22.555,100.473 -187.346,270.805 -187.346,270.805" style="fill:#0c9146;"/><path d="M1048.63,2809.2c-0,-0 -67.308,43.618 -85.342,132.329c-18.034,88.709 42.804,123.305 -4.906,202.949c-47.709,79.643 -160.938,95.49 -216.122,38.676c-55.184,-56.814 -38.964,-123.651 23.346,-205.634c62.31,-81.984 283.024,-168.32 283.024,-168.32" style="fill:#0c9146;"/><path d="M4134.07,3198.81c-0,-0 66.434,44.937 155.145,26.909c88.711,-18.029 96.811,-87.546 188.759,-74.715c91.95,12.831 150.742,110.888 119.98,183.873c-30.762,72.986 -98.627,84.145 -198.429,58.786c-99.804,-25.359 -265.455,-194.853 -265.455,-194.853" style="fill:#0c9146;"/><path d="M2819.66,3720.75c-27.665,34.574 -77.361,94.346 -116.33,317.142c-16.839,96.268 -10.085,175.738 14.939,283.374c14.97,64.391 85.307,184.518 241.587,211.807c89.077,15.553 176.387,-46.218 185.712,-154.568c9.2,-106.902 -93.844,-158.159 -189.341,-200.488c-110.368,-48.919 -214.417,-112.635 -136.567,-457.267" style="fill:#0c9146;"/><path d="M3841.55,2072.16c39.638,19.736 108.562,55.682 334.561,46.701c97.653,-3.882 173.902,-27.273 273.821,-74.473c59.776,-28.236 162.33,-122.365 155.984,-280.883c-3.618,-90.353 -82.441,-162.641 -190.315,-148.863c-106.431,13.594 -134.761,125.141 -155.959,227.425c-24.496,118.211 -64.792,233.373 -418.092,230.093" style="fill:#0c9146;"/><path d="M3702.16,2966.72c8.555,-68.545 -48.41,-113.312 -112.181,-122.15c-63.77,-8.837 -159.535,55.233 -148.434,112.949c11.102,57.715 52.984,146.631 117.374,171.839c64.391,25.208 135.575,-101.22 143.241,-162.638" style="fill:#0c9146;"/><path d="M2132.52,958.128c8.556,-68.544 -48.41,-113.311 -112.18,-122.149c-63.771,-8.837 -159.536,55.232 -148.435,112.948c11.103,57.716 52.984,146.631 117.374,171.839c64.391,25.208 135.575,-101.22 143.241,-162.638" style="fill:#0c9146;"/><path d="M1517.23,3380.9c-42.528,21 -66.551,126.721 -39.032,205.842c27.518,79.122 125.881,143.982 212.53,113.665c86.649,-30.318 4.942,-135.822 -22.078,-175.307c-64.167,-93.767 -55.334,-191.65 -151.42,-144.2" style="fill:#0c9146;"/><path d="M3809.82,1273.29c39.713,11.506 116.277,-29.179 144.053,-83.233c27.775,-54.055 1.348,-137.694 -72.373,-167.407c-73.719,-29.715 -81.543,65.717 -86.78,99.586c-12.438,80.43 -74.624,125.056 15.1,151.054" style="fill:#0c9146;"/><path d="M3559.55,1609.05c0,-0 107.537,-237.496 127.09,-492.067c18.18,-236.7 -138.827,-219.504 -178.466,-208.453c-52.725,14.7 -127.485,124.657 -103.937,218.526c49.897,198.912 183.095,120.077 155.313,481.994" style="fill:#0c9146;"/><path d="M440.755,1606.93c0,0 -149.677,25.837 -281.838,-47.811c-132.161,-73.647 -165.443,-165.876 -157.918,-209.36c15.131,-87.45 134.434,-114.618 188.565,-44.026c69.084,90.09 -27.794,104.622 21.332,188.389c46.219,78.81 127.769,89.001 229.859,112.808" style="fill:#0c9146;"/></g><g id="rot"><path d="M1304.35,1948.35c0,0 97.252,-213.368 -6.056,-365.293c-103.309,-151.923 -210.766,-89.932 -304.002,-92.971c-93.236,-3.038 -207.452,-128.729 -174.029,-232.037c33.424,-103.309 103.392,-158.321 218.854,-167.437c115.462,-9.115 170.696,39.782 188.927,147.661c18.231,107.879 53.89,189.18 121.419,214.129c180.097,66.543 390.142,-48.813 460.027,-83.097c69.885,-34.285 112.952,-3.148 112.952,-3.148l-423.608,438.71l-194.484,143.483Z" style="fill:#e41e25;"/><path d="M2080.4,3829.72c-11.956,68.034 42.711,115.581 105.962,127.581c63.252,12 162.087,-47.223 153.871,-105.421c-8.215,-58.196 -45.618,-149.086 -108.675,-177.468c-63.057,-28.381 -140.445,94.347 -151.158,155.308" style="fill:#e41e25;"/><path d="M4823.03,1437.61c40.557,2.333 63.274,-31.849 64.591,-68.577c1.318,-36.728 -41.883,-89.003 -74.929,-80.519c-33.046,8.485 -82.462,35.7 -93.305,73.39c-10.843,37.692 67.304,73.617 103.643,75.706" style="fill:#e41e25;"/><path d="M4155.53,3437.21c-18.568,23.564 -8.22,88.146 24.376,123.544c32.597,35.4 100.725,42.864 141.324,1.666c40.6,-41.198 -27.453,-75.601 -50.977,-89.489c-55.866,-32.979 -72.771,-88.961 -114.723,-35.721" style="fill:#e41e25;"/><path d="M3035.16,1453.45c-0,-0 176.665,123.65 292.684,165.838c116.019,42.189 216.217,152.935 234.674,263.679c18.458,110.745 -11.201,198.669 15.821,324.38c63.184,293.948 124.588,339.433 104.813,422.492c-15.271,64.136 -115.937,45.645 -207.978,105.471c-98.879,64.272 -187.87,225.933 -187.87,225.933l-252.144,-1507.79Z" style="fill:#e41e25;"/><path d="M3844.64,2686.96c-66.142,45.357 -33.451,238.926 44.516,328.681c77.968,89.757 217.468,125.335 326.693,7.322c109.225,-118.013 107.676,-246.03 68.785,-302.916c-38.892,-56.886 -176.84,-213.546 -439.994,-33.087" style="fill:#e41e25;"/><path d="M713.181,1089.56c28.853,-27.78 -3.163,-120.444 -48.947,-158.248c-45.785,-37.804 -117.428,-43.863 -161.531,23.25c-44.103,67.111 -32.816,130.045 -8.982,154.87c23.834,24.824 104.666,90.655 219.46,-19.872" style="fill:#e41e25;"/><path d="M3152.41,3159.47c0,0 -80.268,75.588 -148.695,150.656c-61.81,67.812 -86.542,167.175 -3.484,202.374c83.059,35.198 138.183,42.718 217.636,109.322c73.26,61.411 76.092,208.791 50.847,286.856c-33.149,102.505 -130.052,184.575 -243.763,176.665c-139.444,-9.7 -163.749,-155.236 -155.053,-224.127c14.501,-114.875 62.106,-238.546 2.778,-352.012c-55.131,-105.441 -478.204,-22.766 -478.204,-22.766l757.938,-326.968Z" style="fill:#e41e25;"/><path d="M1388.19,3675.99c0,-0 -100.888,215.913 -115.066,445.617c-13.184,213.581 140.606,195.25 179.301,184.577c51.47,-14.197 122.692,-114.613 97.728,-198.757c-52.902,-178.305 -182.105,-104.871 -161.963,-431.437" style="fill:#e41e25;"/><path d="M2100.1,751.725c-0,0 -166.512,-170.5 -376.485,-264.715c-195.235,-87.602 -232.273,62.783 -235.92,102.757c-4.852,53.171 64.026,155.21 151.57,161.499c185.509,13.324 162.315,-133.469 460.835,0.459" style="fill:#e41e25;"/><path d="M611.184,2993.72c-0,0 -440.061,81.796 -544.107,320.595c-41.261,94.7 -53.126,201.49 18.067,276.638c44.917,47.412 209.625,31.642 221.49,-138.431c16.473,-236.11 87.014,-324.325 304.55,-458.802" style="fill:#e41e25;"/><path d="M4247.84,1649.96c0,-0 42.503,-176.357 159.551,-298.778c87.786,-91.815 230.172,-37.793 234.127,24.863c3.328,52.724 -7.91,90.969 -91.068,120.775c-128.851,46.181 -150.904,-33.855 -302.61,153.14" style="fill:#e41e25;"/><path d="M2648.08,789.283c0,0 66.508,-176.66 227.872,-261.537c161.364,-84.878 280.4,-51.938 321.944,-11.959c83.548,80.4 37.533,226.056 -71.575,231.019c-139.246,6.337 -93.867,-106.393 -213.852,-116.412c-112.884,-9.425 -174.942,68.936 -264.389,158.889" style="fill:#e41e25;"/><path d="M1147.31,2667.54c8.386,-46.683 -62.359,-128.835 -142.346,-153.729c-79.986,-24.893 -190.607,15.664 -217.723,103.368c-27.116,87.704 106.292,84.697 154.107,86.434c113.546,4.124 187.015,69.402 205.962,-36.073" style="fill:#e41e25;"/></g><g id="blau"><path d="M3180.07,1583.14c-0,0 249.733,246.103 372.344,188.093c201.33,-95.253 75.436,-280.987 237.311,-375.743c162.162,-94.924 257.982,34.831 312.46,150.298c51.417,108.978 39.552,246.644 -27.687,353.434c-134.067,212.931 -300.594,-52.057 -411.34,48.141c-110.744,100.198 -146.341,172.918 -178.792,488.816c-44.723,435.379 -335.381,-431.59 -335.381,-431.59l31.085,-421.449Z" style="fill:#002d56;"/><path d="M3118.49,4139.4c0,-0 154.103,95.711 323.404,100.673c126.974,3.721 190.41,-134.727 149.227,-182.113c-34.655,-39.874 -69.514,-59.211 -149.648,-22.034c-124.165,57.605 -83.662,130.072 -322.983,103.474" style="fill:#002d56;"/><path d="M1871.02,1337.49c0,-0 200.622,-87.004 326.963,-167.779c120.633,-77.127 209.27,-69.198 282.136,-51.417c57.179,13.953 119.681,52.282 174.688,108.767c55.007,56.485 169.21,101.049 169.21,101.049l-196.238,68.365l-756.759,-58.985Z" style="fill:#002d56;"/><path d="M2363.41,979.29c-57.991,-3.982 -67.663,-83.316 -91.052,-127.579c-23.39,-44.263 -138.451,-213.072 -82.724,-335.939c55.726,-122.868 173.979,-146.097 240.012,-134.188c66.033,11.91 234.035,71.496 225.005,203.903c-7.306,107.16 -46.821,105.733 -102.653,193.832c-55.832,88.1 -83.757,207.17 -188.588,199.971" style="fill:#002d56;"/><path d="M2068.16,3920.79c0,-0 26.138,55.682 1.156,120.099c-24.983,64.418 -79.351,61.658 -81.057,132.44c-1.707,70.782 66.157,127.483 126.033,113.643c59.876,-13.84 76.967,-63.455 70.047,-141.739c-6.92,-78.285 -116.179,-224.443 -116.179,-224.443" style="fill:#002d56;"/><path d="M3321.86,1504.08c-0,0 -58.869,-45.178 -63.052,-126.717c-4.184,-81.541 60.165,-107.437 25.768,-183.384c-34.396,-75.948 -142.084,-100.084 -204.279,-53.667c-62.194,46.416 -56.483,108.079 -8.245,187.408c48.236,79.328 249.808,176.36 249.808,176.36" style="fill:#002d56;"/><path d="M897.545,2767.36c-31.714,30.902 -86.363,86.185 -304.302,146.669c-94.171,26.135 -173.921,27.154 -283.482,12.734c-65.544,-8.628 -191.951,-66.929 -234.332,-219.807c-24.157,-87.139 28.818,-180.051 135.743,-199.885c105.498,-19.568 166.548,77.992 217.978,168.913c59.438,105.077 132.984,202.426 468.395,91.376" style="fill:#002d56;"/><path d="M4276.28,2396.57c14.323,66.897 159.016,135.388 284.683,122.428c125.666,-12.961 257.631,-130.583 246.599,-262.806c-11.033,-132.223 -195.791,-51.406 -263.578,-26.182c-160.978,59.898 -300.066,15.412 -267.704,166.56" style="fill:#002d56;"/><path d="M1303.97,2764.66c-0,-0 102.741,201.905 64.746,416.266c-40.026,225.82 -179.301,213.581 -263.68,216.217c-84.377,2.637 -232.037,2.637 -255.768,131.839c-23.731,129.204 26.368,297.958 118.656,332.237c92.288,34.278 290.047,52.736 353.33,-131.839c63.283,-184.577 47.462,-300.596 131.84,-387.61c84.377,-87.014 239.937,-45.474 336.275,-8.559c96.338,36.915 143.621,-133.827 143.621,-133.827l-448.256,-527.359l-180.764,92.635Z" style="fill:#002d56;"/><path d="M722.045,1761.95c-29.339,-18.302 -80.146,-51.261 -262.83,-70.75c-78.937,-8.421 -143.154,-0.777 -229.405,20.796c-51.597,12.906 -145.916,66.952 -160.921,178.379c-8.552,63.511 45.599,122.979 134.001,125.654c87.221,2.639 124.125,-72.033 154.123,-141.049c34.67,-79.761 81.642,-155.594 365.032,-113.03" style="fill:#002d56;"/><path d="M582.864,3896.56c-66.134,54.178 -56.286,154.615 -9.804,229.066c46.482,74.452 182.72,115.088 222.884,50.433c40.165,-64.655 81.031,-190.029 48.085,-280.192c-32.946,-90.161 -201.908,-47.852 -261.165,0.693" style="fill:#002d56;"/><path d="M1321.38,1353.33c9.402,-37.23 27.016,-102.128 -13.692,-302.092c-17.591,-86.402 -47.13,-151.807 -98.683,-235.838c-30.842,-50.271 -119.216,-131.896 -241.315,-110.209c-69.596,12.361 -113.941,89.739 -87.143,184.224c26.439,93.223 117.255,107.112 199.816,115.598c95.416,9.807 190.824,33.964 241.017,348.317" style="fill:#002d56;"/><path d="M3824.91,3063.38c0,0 167.36,87.31 232.175,257.725c64.816,170.416 17.772,284.617 -26.921,321.041c-89.882,73.251 -228.932,10.021 -220.713,-98.892c10.49,-138.994 116.929,-80.362 141.333,-198.266c22.959,-110.925 -47.353,-181.973 -125.874,-281.608" style="fill:#002d56;"/></g><g id="Ebene-1" serif:id="Ebene 1"><path d="M2357.57,1227.45c623.404,-0 1129.54,506.132 1129.54,1129.54c0,623.406 -506.132,1129.53 -1129.54,1129.53c-623.406,-0 -1129.53,-506.126 -1129.53,-1129.53c0,-623.404 506.126,-1129.54 1129.53,-1129.54" style="fill:#002d56;"/><path d="M2231.03,2278.12c77.654,55.452 187.512,212.646 182.224,287.646c-5.288,74.999 -152.041,114.994 -213.95,162.348c-52.712,40.318 -83.049,133.983 -157.504,121.776c-42.908,-7.034 -139.039,-105.582 -98.664,-171.194c70.362,-114.343 -123.01,-178.563 -122.309,-252.838c0.699,-74.275 29.272,-164.758 126.509,-192.82c100.591,-29.02 206.04,-10.378 283.694,45.082" style="fill:#0c9146;"/><path d="M2138.21,2070.33c-6.578,-65.149 160.792,-242.781 225.699,-254.968c64.907,-12.176 98.281,147.399 163.745,181.893c65.464,34.495 207.482,-24.444 229.066,25.063c21.584,49.518 -56.347,205.03 -99.55,272.012c-37.168,57.652 -117.317,144.562 -159.609,129.893c-42.305,-14.67 -37.81,-162.38 -94.192,-217.91c-59.888,-58.986 -258.582,-70.822 -265.159,-135.983" style="fill:#e41e25;"/><path d="M2384.26,2984.79l-3.972,-77.157m39.147,102.687l-10.786,-101.552m74.896,103.821l-74.896,-111.764m97.017,68.079l-58.437,-61.271m61.273,22.693l-31.763,-29.501m-21.56,-87.936l-4.541,44.251m28.366,-11.346l-39.713,9.644m28.366,-26.664l-23.265,31.77m-14.743,-7.943l-45.389,-35.741m4.538,-2.837l30.637,64.676m17.592,-85.667l-54.469,89.071m-3.972,-31.771l51.063,8.51m76.017,54.464l-116.868,2.269m111.766,72.619l-111.766,-74.888m64.104,105.524l-65.806,-110.062m52.195,108.927c-0.572,-3.971 5.101,-108.927 5.101,-108.927m26.674,110.062l-39.152,-115.168m76.588,49.357l-68.078,-41.982m52.191,89.638l-39.713,-99.85m-19.284,2.837l-62.407,65.242m41.418,-90.205l-41.418,-32.338m20.991,-81.696l35.743,76.59m-20.989,40.848c-1.704,-2.836 -2.836,-120.275 -2.836,-120.275m-56.738,174.171l32.906,-24.962" style="fill:#fff;stroke:#fff;stroke-width:0.97px;"/><path d="M2243.5,1931.94l1.19,-27.351c0.567,-17.591 1.135,-33.467 9.644,-49.926l1.135,-2.837l2.269,-14.183c2.837,-21.561 9.646,-40.285 15.319,-61.273l3.971,-15.316l7.943,-29.498l0.567,-1.133c0,0 -2.836,-21 26.097,-31.774l-2.836,-19.285l-1.135,-5.673c-0,-2.837 0.567,-5.673 3.404,-6.817c1.702,-0.561 3.404,1.144 3.971,2.836l0.567,2.837c1.135,5.673 2.837,11.346 5.674,16.459c1.134,1.705 0.567,-3.408 0.567,-4.541l-0.567,-7.377c-1.702,-4.541 -5.674,-11.907 -3.972,-18.152c3.404,-8.51 10.212,-2.265 10.78,3.409l1.134,8.509c0,0 6.124,10.016 4.586,15.164c0.603,-1.377 7.033,-10.634 12.434,-10.634l-2.837,-5.102c-1.134,-3.408 -1.134,-6.245 1.135,-8.509c2.269,-2.265 4.539,-1.705 6.241,-0l2.269,3.408c-0,0 10.78,11.907 11.347,18.152l0,2.837l4.539,-1.705c0.567,-2.836 1.702,-5.101 3.404,-7.377c0.567,-1.704 2.269,-3.397 3.971,-4.541c6.808,-5.101 6.808,2.837 6.241,6.817l-3.404,7.938l-5.106,10.214c-3.404,3.969 -6.808,3.969 -10.78,7.378l-3.404,2.836l-3.972,2.837l-3.403,5.101l-6.241,6.245l-23.828,15.316l-4.538,3.969c-3.404,4.541 -3.971,9.082 -4.539,14.755c-0.567,22.121 1.135,43.109 -1.134,65.242l-2.837,14.744l-3.404,10.214l-0,3.408l-0.567,2.265l-2.837,6.245c-1.592,20.569 -2.349,41.195 -2.269,61.834l0.567,12.478c0,0 4.539,14.184 3.404,26.674c0,0 10.779,36.876 -3.971,60.701l-3.972,9.082c-0.567,2.837 -1.701,6.234 -1.701,9.642c-1.135,8.51 0.567,15.316 0.567,23.826c-0,7.377 -1.135,15.887 -2.269,23.264l-1.135,6.806l-5.673,11.907l0.567,5.113c-0,-0 3.404,3.969 1.135,10.214c-0,-0 2.836,0.56 -1.135,12.479c-0,-0 4.539,4.541 2.269,11.906l3.404,8.51l1.135,5.113l-0,11.907c-0,0 3.404,3.409 3.971,7.95c0,-0 4.539,2.836 3.971,13.05c0,0 14.183,2.837 13.049,17.02c-0,0 3.971,3.397 4.538,5.673c0.568,1.693 -1.702,3.397 -1.702,3.397l0,1.705l2.27,1.704c2.836,2.836 1.702,3.397 3.404,6.805l1.134,1.133c0,-0 9.078,2.836 12.481,10.786l5.106,4.541l7.943,11.346l3.404,2.837c-0,-0 0.567,-1.144 9.077,15.876l3.972,5.673c2.837,3.98 3.972,3.408 5.674,7.949c-0,0 0.567,3.397 3.404,5.674c-0,-0 2.836,5.673 2.836,8.509l5.106,9.643l1.702,5.101c2.837,6.245 6.808,6.245 8.51,14.755l-0,2.837l7.374,11.346l9.082,17.587l6.233,11.346l5.113,5.108l42.55,52.761l13.611,18.721c5.953,7.945 12.607,15.348 19.856,22.126l9.642,7.944c12.491,7.942 13.623,5.673 25.53,15.317c6.817,5.106 13.05,11.347 19.296,17.02l23.825,23.828l19.856,18.154c18.724,18.722 23.826,26.098 40.845,47.656l17.592,22.126l11.346,11.914l6.806,4.538c-0,0 8.51,0 14.183,6.241l2.276,0.567c2.265,1.702 4.53,2.837 6.234,5.106c12.479,10.779 22.693,10.779 34.611,31.204c3.397,6.808 15.888,45.386 1.705,56.165c-2.277,1.702 -6.818,3.404 -9.082,3.971c-11.347,0.568 -22.121,-6.808 -30.631,-13.615c-0,-0 -5.113,-5.674 -45.386,-37.444c0,0 -10.214,-8.51 -10.786,-11.914l-1.132,-1.702c-1.705,-4.538 -0.572,-5.105 -3.969,-8.511c-7.95,-9.077 -18.164,-17.587 -29.51,-22.125c-0,-0 -79.426,-43.117 -100.414,-67.512l-19.857,-17.021c-13.611,-10.211 -13.611,-10.211 -27.794,-19.289c-38.008,-23.827 -74.323,-56.732 -102.69,-91.34c-0,0 -28.934,-27.231 -31.203,-27.799l-7.375,3.972l3.971,13.615c0.567,3.404 -0.567,7.943 -3.971,8.51l54.464,209.912l3.971,9.077l4.539,20.425l5.673,-3.404l2.27,-1.702l7.375,-1.134c2.269,-0 4.538,1.134 6.804,2.269l2.837,2.837l10.786,39.712c58.086,31.754 101.336,85.206 120.27,148.641c0,0 31.775,81.695 -5.101,146.371l-10.214,11.914l-10.786,9.644c-11.907,8.51 -26.09,11.914 -40.845,12.481c-47.651,2.27 -92.473,-30.068 -121.408,-65.242c-36.308,-44.252 -60.136,-100.985 -64.675,-157.718c-1.134,-14.75 0,-28.366 1.702,-42.549l2.837,-13.616l3.971,-11.348l-62.406,-55.597c-0,-0 -74.321,-65.811 -82.263,-85.1l-10.78,-11.914l-3.404,-3.971l-4.538,-6.241l-3.971,-6.24l-2.837,-3.972l-2.269,-6.24l-1.702,-10.212l-2.27,-30.069l0.568,-5.106l2.836,-14.183c1.135,-6.808 2.837,-13.049 3.404,-19.857l0.568,-10.779c-0,0 2.269,-9.644 12.481,-73.753c-0,0 -1.702,-2.269 5.673,-21.558c-0,-0 -3.404,2.269 4.539,-13.616l3.971,-5.673c-0,-0 -5.106,0.567 2.836,-14.184l0,-5.106l0.568,-1.702c-0,-0 -5.673,-4.539 0.567,-15.318l-1.702,-5.106l-1.135,-5.106l0.568,-2.269c-0,-0 -1.135,-9.077 2.836,-14.183l0,-7.943c0,0 -3.404,-4.541 -2.269,-9.082l-2.269,-7.938l-1.135,-1.704l-0.567,-7.377l-1.135,-1.133c0,0 -2.269,-2.836 -0.567,-9.642c-0,0 0.567,-3.408 -0.567,-4.541c-2.837,-3.397 -4.539,-2.264 -5.106,-6.805c-0,-0 -5.674,-1.133 -2.837,-17.592l-2.837,-6.806c0,0 -19.856,-45.385 -23.827,-69.211l-4.539,-14.183c-3.404,-9.642 -8.51,-17.591 -11.346,-27.234c-6.808,-22.693 -0.568,-45.385 10.212,-65.814c-0,0 11.913,-28.926 3.404,-51.619c-43.913,-14.499 -83.773,-39.188 -116.303,-72.06l-10.779,-7.938c-0,0 -8.51,-5.673 -13.617,-16.447c-0,-0 -32.905,-26.102 -56.732,-61.845l-32.338,-34.612l-6.24,-5.673c-6.242,-6.234 -13.617,-8.51 -19.858,-14.744l-7.942,-8.509l-1.702,-5.674c-2.636,-5.276 -5.873,-10.225 -9.645,-14.755l-2.836,-8.51l-0.568,-6.233c0,-0 -5.673,-7.95 0,-9.654c0,0 -4.538,-9.642 -2.269,-13.039c-0,-0 3.404,-3.981 6.808,1.132c-0,0 4.538,-5.673 9.644,-0.572l3.972,5.113l2.269,-2.276c1.702,-0.56 3.971,-0.56 5.673,0.572l5.673,6.805l9.078,7.378c1.703,2.265 5.107,3.397 6.241,5.673c0,0 5.673,1.705 20.424,11.347l0.567,-0c1.135,-5.113 -0.567,-14.755 -0.567,-14.755c0.567,-1.705 1.135,-3.969 2.269,-5.102c1.702,-2.836 3.971,-4.541 7.375,-4.541c2.27,0 3.972,1.133 3.404,3.409l-2.269,3.397l1.702,7.95l1.135,5.101l1.702,1.704l1.134,2.265c0.568,2.276 1.702,5.113 1.135,7.377c-0,3.409 -1.135,6.245 -1.702,9.642l-1.135,5.113l1.135,5.674c7.375,14.743 35.174,34.599 35.174,34.599l9.644,7.95c5.674,3.969 41.416,24.957 51.061,32.335l12.481,12.479c3.404,3.408 6.24,7.949 9.077,12.478c0,0 32.905,41.417 90.206,45.386c-0,0 -6.241,-12.478 -6.241,-28.926l3.404,-18.152c0,-1.704 -1.135,-3.409 -2.269,-5.113c-0.568,-2.265 -2.27,-4.541 -3.404,-6.234l-0,-6.245l2.836,-20.988l2.27,-14.756l0.567,-3.968c0,-3.969 0.567,-6.806 2.269,-10.787c4.539,-8.51 9.645,-14.183 18.155,-18.712l12.481,-5.673l6.24,-3.981c3.404,-2.264 7.376,-3.969 11.347,-3.969c9.078,-0.56 10.213,1.133 18.723,2.837l6.808,2.276l5.105,0l3.972,1.693c3.971,1.704 9.077,2.276 12.481,3.98c10.212,5.674 19.289,19.285 24.962,28.367l3.971,8.509l1.135,5.102l1.135,3.408l0.567,14.744c0.705,6.117 0.145,11.93 -1.237,17.533c-0.562,9.117 -1.169,16.203 -0.465,22.179c1.3,10.401 2.268,20.464 3.916,27.923m199.194,873.569c-2.837,-3.971 -14.755,-14.183 -14.755,-14.183l17.592,60.704l0.56,1.135l7.949,-0.568c2.265,0 4.53,0 6.234,1.135c1.704,1.702 3.409,2.837 3.969,5.106l2.837,6.808c11.346,-5.106 15.327,-3.972 15.327,-3.972c-10.787,-26.096 -34.612,-51.626 -34.612,-51.626c-1.132,6.241 -2.836,6.808 -2.836,6.808c-0,-0 -2.837,0.567 -3.409,-0.567l-0,-6.241l1.144,-4.539Zm-65.248,114.601c-9.077,3.971 -17.021,-5.673 -17.021,-5.673c-13.616,7.942 -16.452,7.942 -16.452,7.942c70.915,124.245 136.729,90.206 136.729,90.206c11.347,-12.481 16.448,-22.126 16.448,-22.126c18.724,-36.31 -0,-90.205 -0,-90.205l-31.203,12.481c-2.264,1.134 -4.541,-5.673 -4.541,-5.673l-2.264,-1.135l-6.246,-0.567l0,1.702c-1.692,1.701 -7.365,9.644 -11.906,7.942l-5.113,-3.404l-5.674,-7.942l-1.132,-7.943l-4.541,-3.971l-11.907,8.51c3.969,17.587 -17.59,15.885 -17.59,15.885c-8.51,8.51 -17.587,3.971 -17.587,3.971m25.524,-145.803c-20.418,-14.185 -41.978,-14.185 -41.978,-14.185l1.702,3.404c9.079,3.972 25.531,17.589 31.772,24.964l3.974,7.942l0.561,2.837c-1.705,17.02 -20.988,32.337 -20.988,32.337l11.347,52.195c4.538,-0.567 6.804,1.702 6.804,1.702l22.693,-15.886c0,-8.51 5.673,-9.077 5.673,-9.077l3.409,-3.971l-23.825,-81.128l-1.144,-1.134Zm-57.295,-102.121l-56.733,-217.287c0,-0 -3.971,-1.702 -4.538,-3.404l-3.404,-15.318l-5.106,10.779l-11.347,20.424l-12.482,24.963l-32.905,55.598l-2.269,9.645l-7.375,18.722l-0.567,7.943l10.211,9.077c0,0 17.02,9.645 51.628,46.521c-0,-0 23.828,23.827 31.203,48.223l2.269,5.674c1.702,3.971 3.971,7.942 6.808,11.346l13.616,20.991l7.942,-3.971l-1.134,-2.27c-0,0 -0.568,-3.971 0.567,-5.105c2.269,-3.972 11.914,-6.808 11.914,-6.808l5.106,-3.404c-0,-0 2.269,-2.837 2.269,-4.539l-1.135,-5.106c-0.567,-3.404 -1.702,-7.375 -3.404,-10.779l-1.134,-11.915Z" style="fill:#fff;"/></g></g></svg>