<?xml version="1.0" encoding="UTF-8" standalone="no"?>
<!DOCTYPE svg PUBLIC "-//W3C//DTD SVG 1.1//EN" "http://www.w3.org/Graphics/SVG/1.1/DTD/svg11.dtd">
<svg width="100%" height="100%" viewBox="0 0 333 497" version="1.1" xmlns="http://www.w3.org/2000/svg" xmlns:xlink="http://www.w3.org/1999/xlink" xml:space="preserve" xmlns:serif="http://www.serif.com/" style="fill-rule:evenodd;clip-rule:evenodd;stroke-miterlimit:10;">
    <g transform="matrix(1,0,0,1,-797.962,-123.768)">
        <g transform="matrix(1,0,0,1,0,-160)">
            <g transform="matrix(0.390852,0.920454,-0.920454,0.390852,894.34,-518.169)">
                <path d="M960,354.801C988.775,337.194 1055.11,323.165 1078.78,335.249C1102.46,347.333 1095.19,400.614 1102.05,427.303C1107.88,450.027 1134.17,472.841 1119.91,495.382C1111.69,508.373 1066.34,526.037 1050.57,503.833C1023.08,465.137 975.468,519.187 951.395,508.697C927.322,498.206 901.827,476.406 906.133,440.887C910.587,404.144 931.225,372.407 960,354.801Z" style="fill:rgb(0,144,54);"/>
            </g>
            <g transform="matrix(0.775637,-0.631179,0.631179,0.775637,-58.3889,761.417)">
                <path d="M960,354.801C972.736,335.466 1058.27,324.105 1078.78,335.249C1099.3,346.392 1072.84,397.596 1083.1,421.663C1093.35,445.729 1145.44,461.256 1140.31,479.649C1135.18,498.043 1079.11,523.294 1052.32,532.023C1029.26,539.536 987.895,545.485 979.569,532.023C971.243,518.562 1005.44,479.061 1002.37,451.255C999.106,421.718 947.264,374.135 960,354.801Z" style="fill:rgb(226,0,26);"/>
            </g>
            <g id="logo_driver" transform="matrix(0.200566,0,0,0.200566,700.312,258.969)">
                <path d="M1480,2468L1473,2332M1542,2513L1523,2334M1655,2517L1523,2320M1694,2440L1591,2332M1699,2372L1643,2320M1605,2165L1597,2243M1647,2223L1577,2240M1627,2193L1586,2249M1560,2235L1480,2172M1488,2167L1542,2281M1573,2130L1477,2287M1470,2231L1560,2246M1694,2342L1488,2346M1685,2474L1488,2342M1601,2528L1485,2334M1577,2526C1576,2519 1586,2334 1586,2334M1633,2528L1564,2325M1699,2412L1579,2338M1671,2496L1601,2320M1567,2325L1457,2440M1530,2281L1457,2224M1494,2080L1557,2215M1520,2287C1517,2282 1515,2075 1515,2075M1415,2382L1473,2338" style="fill:white;stroke:white;stroke-width:2px;"/>
                <path d="M1231.9,612.22L1234,564C1235,533 1236,505 1251,476L1253,471L1257,446C1262,408 1274,375 1284,338L1291,311L1305,259L1306,257C1306,257 1301,220 1352,201L1347,167L1345,157C1345,152 1346,147 1351,145C1354,144 1357,147 1358,150L1359,155C1361,165 1364,175 1369,184C1371,187 1370,178 1370,176L1369,163C1366,155 1359,142 1362,131C1368,116 1380,127 1381,137L1383,152C1383,152 1393.79,169.662 1391.08,178.743C1392.15,176.315 1403.48,160 1413,160L1408,151C1406,145 1406,140 1410,136C1414,132 1418,133 1421,136L1425,142C1425,142 1444,163 1445,174L1445,179L1453,176C1454,171 1456,167 1459,163C1460,160 1463,157 1466,155C1478,146 1478,160 1477,167L1471,181L1462,199C1456,206 1450,206 1443,212L1437,217L1430,222L1424,231L1413,242L1371,269L1363,276C1357,284 1356,292 1355,302C1354,341 1357,378 1353,417L1348,443L1342,461L1342,467L1341,471L1336,482C1333.19,518.264 1331.86,554.628 1332,591L1333,613C1333,613 1341,638 1339,660C1339,660 1358,725 1332,767L1325,783C1324,788 1322,794 1322,800C1320,815 1323,827 1323,842C1323,855 1321,870 1319,883L1317,895L1307,916L1308,925C1308,925 1314,932 1310,943C1310,943 1315,944 1308,965C1308,965 1316,973 1312,986L1318,1001L1320,1010L1320,1031C1320,1031 1326,1037 1327,1045C1327,1045 1335,1050 1334,1068C1334,1068 1359,1073 1357,1098C1357,1098 1364,1104 1365,1108C1366,1111 1362,1114 1362,1114L1362,1117L1366,1120C1371,1125 1369,1126 1372,1132L1374,1134C1374,1134 1390,1139 1396,1153L1405,1161L1419,1181L1425,1186C1425,1186 1426,1184 1441,1214L1448,1224C1453,1231 1455,1230 1458,1238C1458,1238 1459,1244 1464,1248C1464,1248 1469,1258 1469,1263L1478,1280L1481,1289C1486,1300 1493,1300 1496,1315L1496,1320L1509,1340L1525,1371L1536,1391L1545,1400L1620,1493L1644,1526C1654.5,1540 1666.21,1553.05 1679,1565L1696,1579C1718,1593 1720,1589 1741,1606C1753,1615 1764,1626 1775,1636L1817,1678L1852,1710C1885,1743 1894,1756 1924,1794L1955,1833L1975,1854L1987,1862C1987,1862 2002,1862 2012,1873L2016,1874C2020,1877 2024,1879 2027,1883C2049,1902 2067,1902 2088,1938C2094,1950 2116,2018 2091,2037C2087,2040 2079,2043 2075,2044C2055,2045 2036,2032 2021,2020C2021,2020 2012,2010 1941,1954C1941,1954 1923,1939 1922,1933L1920,1930C1917,1922 1919,1921 1913,1915C1899,1899 1881,1884 1861,1876C1861,1876 1721,1800 1684,1757L1649,1727C1625,1709 1625,1709 1600,1693C1533,1651 1469,1593 1419,1532C1419,1532 1368,1484 1364,1483L1351,1490L1358,1514C1359,1520 1357,1528 1351,1529L1447,1899L1454,1915L1462,1951L1472,1945L1476,1942L1489,1940C1493,1940 1497,1942 1501,1944L1506,1949L1525,2019C1627.39,2074.97 1703.62,2169.19 1737,2281C1737,2281 1793,2425 1728,2539L1710,2560L1691,2577C1670,2592 1645,2598 1619,2599C1535,2603 1456,2546 1405,2484C1341,2406 1299,2306 1291,2206C1289,2180 1291,2156 1294,2131L1299,2107L1306,2087L1196,1989C1196,1989 1065,1873 1051,1839L1032,1818L1026,1811L1018,1800L1011,1789L1006,1782L1002,1771L999,1753L995,1700L996,1691L1001,1666C1003,1654 1006,1643 1007,1631L1008,1612C1008,1612 1012,1595 1030,1482C1030,1482 1027,1478 1040,1444C1040,1444 1034,1448 1048,1420L1055,1410C1055,1410 1046,1411 1060,1385L1060,1376L1061,1373C1061,1373 1051,1365 1062,1346L1059,1337L1057,1328L1058,1324C1058,1324 1056,1308 1063,1299L1063,1285C1063,1285 1057,1277 1059,1269L1055,1255L1053,1252L1052,1239L1050,1237C1050,1237 1046,1232 1049,1220C1049,1220 1050,1214 1048,1212C1043,1206 1040,1208 1039,1200C1039,1200 1029,1198 1034,1169L1029,1157C1029,1157 994,1077 987,1035L979,1010C973,993 964,979 959,962C947,922 958,882 977,846C977,846 998,795 983,755C905.599,729.454 835.34,685.928 778,628L759,614C759,614 744,604 735,585C735,585 677,539 635,476L578,415L567,405C556,394 543,390 532,379L518,364L515,354C510.353,344.708 504.648,335.984 498,328L493,313L492,302C492,302 482,288 492,285C492,285 484,268 488,262C488,262 494,255 500,264C500,264 508,254 517,263L524,272L528,268C531,267 535,267 538,269L548,281L564,294C567,298 573,300 575,304C575,304 585,307 611,324L612,324C614,315 611,298 611,298C612,295 613,291 615,289C618,284 622,281 628,281C632,281 635,283 634,287L630,293L633,307L635,316L638,319L640,323C641,327 643,332 642,336C642,342 640,347 639,353L637,362L639,372C652,398 701,433 701,433L718,447C728,454 791,491 808,504L830,526C836,532 841,540 846,548C846,548 904,621 1005,628C1005,628 994,606 994,577L1000,545C1000,542 998,539 996,536C995,532 992,528 990,525L990,514L995,477L999,451L1000,444C1000,437 1001,432 1004,425C1012,410 1021,400 1036,392L1058,382L1069,375C1075,371 1082,368 1089,368C1105,367 1107,370 1122,373L1134,377L1143,377L1150,380C1157,383 1166,384 1172,387C1190,397 1206,421 1216,437L1223,452L1225,461L1227,467L1228,493C1229.24,503.77 1228.26,514.024 1225.82,523.907C1224.83,539.978 1223.76,552.451 1225,563C1227.29,581.325 1229,599.067 1231.9,612.22ZM1583,2152C1578,2145 1557,2127 1557,2127L1588,2234L1589,2236L1603,2235C1607,2235 1611,2235 1614,2237C1617,2240 1620,2242 1621,2246L1626,2258C1646,2249 1653,2251 1653,2251C1634,2205 1592,2160 1592,2160C1590,2171 1587,2172 1587,2172C1587,2172 1582,2173 1581,2171L1581,2160L1583,2152ZM1468,2354C1452,2361 1438,2344 1438,2344C1414,2358 1409,2358 1409,2358C1534,2577 1650,2517 1650,2517C1670,2495 1679,2478 1679,2478C1712,2414 1679,2319 1679,2319L1624,2341C1620,2343 1616,2331 1616,2331L1612,2329L1601,2328L1601,2331C1598,2334 1588,2348 1580,2345L1571,2339L1561,2325L1559,2311L1551,2304L1530,2319C1537,2350 1499,2347 1499,2347C1484,2362 1468,2354 1468,2354ZM1513,2097C1477,2072 1439,2072 1439,2072L1442,2078C1458,2085 1487,2109 1498,2122L1505,2136L1506,2141C1503,2171 1469,2198 1469,2198L1489,2290C1497,2289 1501,2293 1501,2293L1541,2265C1541,2250 1551,2249 1551,2249L1557,2242L1515,2099L1513,2097ZM1412,1917L1312,1534C1312,1534 1305,1531 1304,1528L1298,1501L1289,1520L1269,1556L1247,1600L1189,1698L1185,1715L1172,1748L1171,1762L1189,1778C1189,1778 1219,1795 1280,1860C1280,1860 1322,1902 1335,1945L1339,1955C1342,1962 1346,1969 1351,1975L1375,2012L1389,2005L1387,2001C1387,2001 1386,1994 1388,1992C1392,1985 1409,1980 1409,1980L1418,1974C1418,1974 1422,1969 1422,1966L1420,1957C1419,1951 1417,1944 1414,1938L1412,1917Z" style="fill:white;"/>
            </g>
        </g>
    </g>
</svg>
